<svg data-v-423bf9ae="" xmlns="http://www.w3.org/2000/svg" viewBox="0 0 448 90" class="iconLeft"><!----><!----><!----><g data-v-423bf9ae="" id="ba063bdf-d5da-4a4b-b76a-39f84b1d917c" fill="white" transform="matrix(4.622496310940746,0,0,4.622496310940746,144.50260087466333,0.023112146887001472)"><path d="M5.53 13.34C6.65 13.34 7.64 13.02 8.44 12.45L7.66 11.27C7.09 11.74 6.36 12.02 5.53 12.02C3.46 12.02 2.16 10.37 2.16 8.46C2.16 6.55 3.46 4.91 5.53 4.91C6.36 4.91 7.09 5.19 7.66 5.66L8.44 4.48C7.64 3.91 6.65 3.59 5.53 3.59C2.58 3.59 0.61 5.75 0.61 8.46C0.61 11.19 2.58 13.34 5.53 13.34ZM13.26 6.36C12.31 6.36 11.61 6.75 11.20 7.32L11.20 3.24L9.79 3.24L9.79 13.15L11.20 13.15L11.20 9.42C11.20 8.02 12.06 7.57 12.86 7.57C13.88 7.57 14.32 8.30 14.32 9.38L14.32 13.15L15.74 13.15L15.74 9.06C15.74 7 14.41 6.36 13.26 6.36ZM23.71 9.70C23.71 7.73 22.39 6.36 20.46 6.36C18.46 6.36 17.05 7.89 17.05 9.84C17.05 11.80 18.45 13.31 20.62 13.31C21.77 13.31 22.74 12.92 23.33 12.25L22.36 11.46C21.93 11.94 21.36 12.19 20.61 12.19C19.37 12.19 18.64 11.33 18.54 10.15L23.71 10.15ZM20.46 7.50C21.50 7.50 22.17 8.12 22.31 9.17L18.59 9.17C18.80 8.17 19.48 7.50 20.46 7.50ZM28.22 13.34C29.14 13.34 29.88 13.07 30.49 12.60L29.68 11.58C29.31 11.93 28.80 12.13 28.25 12.13C26.95 12.13 26.18 11.14 26.18 9.84C26.18 8.55 26.95 7.57 28.25 7.57C28.80 7.57 29.31 7.77 29.68 8.12L30.49 7.10C29.88 6.64 29.14 6.36 28.22 6.36C26.16 6.36 24.73 7.89 24.73 9.84C24.73 11.81 26.16 13.34 28.22 13.34ZM36.11 13.15L37.93 13.15L34.87 9.13L37.54 6.53L35.73 6.53L33.00 9.17L33.00 3.24L31.59 3.24L31.59 13.15L33.00 13.15L33.00 10.94L33.89 10.08ZM39.56 5.26C40.08 5.26 40.48 4.86 40.48 4.36C40.48 3.86 40.08 3.46 39.56 3.46C39.05 3.46 38.65 3.86 38.65 4.36C38.65 4.86 39.05 5.26 39.56 5.26ZM38.88 13.15L40.26 13.15L40.26 6.53L38.88 6.53ZM45.65 6.36C44.71 6.36 44.00 6.74 43.60 7.32L43.43 6.53L42.19 6.53L42.19 13.15L43.60 13.15L43.60 9.11C43.72 7.95 44.51 7.57 45.25 7.57C46.27 7.57 46.71 8.30 46.71 9.38L46.71 13.15L48.13 13.15L48.13 9.06C48.13 7 46.80 6.36 45.65 6.36ZM52.78 12.16C51.33 12.16 50.94 12.07 50.94 11.62C50.94 11.40 51.14 11.20 51.42 11.07C51.79 11.20 52.18 11.26 52.62 11.26C54.26 11.26 55.47 10.31 55.47 8.79C55.47 8.20 55.27 7.69 54.94 7.28C55.10 6.99 55.55 6.88 55.99 7L56.19 6.01C55.58 5.86 54.63 5.92 54.19 6.71C53.75 6.47 53.21 6.36 52.62 6.36C50.94 6.36 49.76 7.32 49.76 8.79C49.76 9.52 50.04 10.12 50.52 10.54C50.08 10.82 49.73 11.26 49.73 11.84C49.73 12.22 49.93 12.60 50.43 12.88C49.71 13.17 49.29 13.75 49.29 14.44C49.29 15.72 50.72 16.22 52.66 16.22C54.70 16.22 56.03 15.53 56.03 14.19C56.03 12.67 54.42 12.16 52.78 12.16ZM52.62 7.44C53.52 7.44 54.03 8.05 54.03 8.79C54.03 9.55 53.51 10.18 52.62 10.18C51.73 10.18 51.20 9.55 51.20 8.79C51.20 8.05 51.71 7.44 52.62 7.44ZM52.65 15.17C51.61 15.17 50.79 14.98 50.79 14.20C50.79 13.78 51.03 13.40 51.57 13.21C51.83 13.26 52.12 13.27 52.44 13.27C53.70 13.27 54.51 13.45 54.51 14.20C54.51 14.90 53.78 15.17 52.65 15.17ZM64.14 3.82L64.14 10.78L59.16 3.82L57.76 3.82L57.76 13.15L59.21 13.15L59.21 6.21L64.18 13.15L65.57 13.15L65.57 3.82Z"></path></g><!----><g data-v-423bf9ae="" id="c7a9b1a8-b6dc-40f2-affd-354b91fb5161" transform="matrix(1.2992074342126783,0,0,1.2992074342126783,-0.9603717106339076,-19.705635103282262)" stroke="none" fill="white"><circle cx="18.869" cy="28.494" r="12.767"></circle><path d="M48.443 72.14a4.483 4.483 0 0 0 3.173-1.309L68.06 54.394a4.466 4.466 0 0 0-6.312-6.318L48.471 61.147S34.283 45 30.645 45H9.612C5.4 45 1 48.857 1 53.07V85h33V60.665l10.739 10.166c.873.873 2.561 1.309 3.704 1.309z"></path><path d="M44 16v33.221l3.983 4.207L51 50.421V24h41v54H44v7h55V16z"></path></g><!----></svg>